<?xml version="1.0" encoding="UTF-8" standalone="no"?>
<!DOCTYPE svg PUBLIC "-//W3C//DTD SVG 1.1//EN"
 "http://www.w3.org/Graphics/SVG/1.1/DTD/svg11.dtd">
<!-- Generated by graphviz version 2.42.3 (20191010.1750)
 -->
<!-- Title: snakemake_dag Pages: 1 -->
<svg width="237pt" height="332pt"
 viewBox="0.00 0.00 237.00 332.00" xmlns="http://www.w3.org/2000/svg" xmlns:xlink="http://www.w3.org/1999/xlink">
<g id="graph0" class="graph" transform="scale(1 1) rotate(0) translate(4 328)">
<title>snakemake_dag</title>
<polygon fill="white" stroke="transparent" points="-4,4 -4,-328 233,-328 233,4 -4,4"/>
<!-- 0 -->
<g id="node1" class="node">
<title>0</title>
<path fill="none" stroke="#d8ac56" stroke-width="2" d="M68.5,-36C68.5,-36 38.5,-36 38.5,-36 32.5,-36 26.5,-30 26.5,-24 26.5,-24 26.5,-12 26.5,-12 26.5,-6 32.5,0 38.5,0 38.5,0 68.5,0 68.5,0 74.5,0 80.5,-6 80.5,-12 80.5,-12 80.5,-24 80.5,-24 80.5,-30 74.5,-36 68.5,-36"/>
<text text-anchor="middle" x="53.5" y="-15.5" font-family="sans" font-size="10.00">all</text>
</g>
<!-- 1 -->
<g id="node2" class="node">
<title>1</title>
<path fill="none" stroke="#56a9d8" stroke-width="2" d="M89,-180C89,-180 18,-180 18,-180 12,-180 6,-174 6,-168 6,-168 6,-156 6,-156 6,-150 12,-144 18,-144 18,-144 89,-144 89,-144 95,-144 101,-150 101,-156 101,-156 101,-168 101,-168 101,-174 95,-180 89,-180"/>
<text text-anchor="middle" x="53.5" y="-159.5" font-family="sans" font-size="10.00">split_transcripts</text>
</g>
<!-- 1&#45;&gt;0 -->
<g id="edge1" class="edge">
<title>1&#45;&gt;0</title>
<path fill="none" stroke="grey" stroke-width="2" d="M33.12,-143.53C23.69,-134.09 13.49,-121.6 8.5,-108 2.98,-92.98 2.98,-87.02 8.5,-72 12.28,-61.7 19.06,-52.02 26.22,-43.84"/>
<polygon fill="grey" stroke="grey" stroke-width="2" points="28.84,-46.16 33.12,-36.47 23.73,-41.38 28.84,-46.16"/>
</g>
<!-- 4 -->
<g id="node5" class="node">
<title>4</title>
<path fill="none" stroke="#59d856" stroke-width="2" d="M77.5,-108C77.5,-108 29.5,-108 29.5,-108 23.5,-108 17.5,-102 17.5,-96 17.5,-96 17.5,-84 17.5,-84 17.5,-78 23.5,-72 29.5,-72 29.5,-72 77.5,-72 77.5,-72 83.5,-72 89.5,-78 89.5,-84 89.5,-84 89.5,-96 89.5,-96 89.5,-102 83.5,-108 77.5,-108"/>
<text text-anchor="middle" x="53.5" y="-87.5" font-family="sans" font-size="10.00">split_peaks</text>
</g>
<!-- 1&#45;&gt;4 -->
<g id="edge6" class="edge">
<title>1&#45;&gt;4</title>
<path fill="none" stroke="grey" stroke-width="2" d="M53.5,-143.7C53.5,-135.98 53.5,-126.71 53.5,-118.11"/>
<polygon fill="grey" stroke="grey" stroke-width="2" points="57,-118.1 53.5,-108.1 50,-118.1 57,-118.1"/>
</g>
<!-- 5 -->
<g id="node6" class="node">
<title>5</title>
<path fill="none" stroke="#56d8a9" stroke-width="2" d="M217,-108C217,-108 120,-108 120,-108 114,-108 108,-102 108,-96 108,-96 108,-84 108,-84 108,-78 114,-72 120,-72 120,-72 217,-72 217,-72 223,-72 229,-78 229,-84 229,-84 229,-96 229,-96 229,-102 223,-108 217,-108"/>
<text text-anchor="middle" x="168.5" y="-87.5" font-family="sans" font-size="10.00">split_peaks_crosslink</text>
</g>
<!-- 1&#45;&gt;5 -->
<g id="edge7" class="edge">
<title>1&#45;&gt;5</title>
<path fill="none" stroke="grey" stroke-width="2" d="M81.63,-143.88C96.67,-134.72 115.37,-123.34 131.56,-113.48"/>
<polygon fill="grey" stroke="grey" stroke-width="2" points="133.54,-116.38 140.26,-108.19 129.9,-110.4 133.54,-116.38"/>
</g>
<!-- 2 -->
<g id="node3" class="node">
<title>2</title>
<path fill="none" stroke="#afd856" stroke-width="2" d="M95,-252C95,-252 12,-252 12,-252 6,-252 0,-246 0,-240 0,-240 0,-228 0,-228 0,-222 6,-216 12,-216 12,-216 95,-216 95,-216 101,-216 107,-222 107,-228 107,-228 107,-240 107,-240 107,-246 101,-252 95,-252"/>
<text text-anchor="middle" x="53.5" y="-231.5" font-family="sans" font-size="10.00">shuffle_transcripts</text>
</g>
<!-- 2&#45;&gt;1 -->
<g id="edge4" class="edge">
<title>2&#45;&gt;1</title>
<path fill="none" stroke="grey" stroke-width="2" d="M53.5,-215.7C53.5,-207.98 53.5,-198.71 53.5,-190.11"/>
<polygon fill="grey" stroke="grey" stroke-width="2" points="57,-190.1 53.5,-180.1 50,-190.1 57,-190.1"/>
</g>
<!-- 3 -->
<g id="node4" class="node">
<title>3</title>
<path fill="none" stroke="#d85656" stroke-width="2" d="M94,-324C94,-324 13,-324 13,-324 7,-324 1,-318 1,-312 1,-312 1,-300 1,-300 1,-294 7,-288 13,-288 13,-288 94,-288 94,-288 100,-288 106,-294 106,-300 106,-300 106,-312 106,-312 106,-318 100,-324 94,-324"/>
<text text-anchor="middle" x="53.5" y="-303.5" font-family="sans" font-size="10.00">merge_transcripts</text>
</g>
<!-- 3&#45;&gt;2 -->
<g id="edge5" class="edge">
<title>3&#45;&gt;2</title>
<path fill="none" stroke="grey" stroke-width="2" d="M53.5,-287.7C53.5,-279.98 53.5,-270.71 53.5,-262.11"/>
<polygon fill="grey" stroke="grey" stroke-width="2" points="57,-262.1 53.5,-252.1 50,-262.1 57,-262.1"/>
</g>
<!-- 4&#45;&gt;0 -->
<g id="edge2" class="edge">
<title>4&#45;&gt;0</title>
<path fill="none" stroke="grey" stroke-width="2" d="M53.5,-71.7C53.5,-63.98 53.5,-54.71 53.5,-46.11"/>
<polygon fill="grey" stroke="grey" stroke-width="2" points="57,-46.1 53.5,-36.1 50,-46.1 57,-46.1"/>
</g>
<!-- 5&#45;&gt;0 -->
<g id="edge3" class="edge">
<title>5&#45;&gt;0</title>
<path fill="none" stroke="grey" stroke-width="2" d="M140.37,-71.88C124.99,-62.52 105.79,-50.83 89.36,-40.83"/>
<polygon fill="grey" stroke="grey" stroke-width="2" points="90.91,-37.67 80.55,-35.47 87.27,-43.65 90.91,-37.67"/>
</g>
</g>
</svg>
