<?xml version="1.0" encoding="UTF-8" standalone="no"?>
<!DOCTYPE svg PUBLIC "-//W3C//DTD SVG 1.1//EN"
 "http://www.w3.org/Graphics/SVG/1.1/DTD/svg11.dtd">
<!-- Generated by graphviz version 2.42.3 (20191010.1750)
 -->
<!-- Title: snakemake_dag Pages: 1 -->
<svg width="374pt" height="404pt"
 viewBox="0.00 0.00 373.90 404.00" xmlns="http://www.w3.org/2000/svg" xmlns:xlink="http://www.w3.org/1999/xlink">
<g id="graph0" class="graph" transform="scale(1 1) rotate(0) translate(4 400)">
<title>snakemake_dag</title>
<polygon fill="white" stroke="transparent" points="-4,4 -4,-400 369.9,-400 369.9,4 -4,4"/>
<!-- 0 -->
<g id="node1" class="node">
<title>0</title>
<path fill="none" stroke="#56d87b" stroke-width="2" d="M160.9,-36C160.9,-36 130.9,-36 130.9,-36 124.9,-36 118.9,-30 118.9,-24 118.9,-24 118.9,-12 118.9,-12 118.9,-6 124.9,0 130.9,0 130.9,0 160.9,0 160.9,0 166.9,0 172.9,-6 172.9,-12 172.9,-12 172.9,-24 172.9,-24 172.9,-30 166.9,-36 160.9,-36"/>
<text text-anchor="middle" x="145.9" y="-15.5" font-family="sans" font-size="10.00">all</text>
</g>
<!-- 1 -->
<g id="node2" class="node">
<title>1</title>
<path fill="none" stroke="#56a2d8" stroke-width="2" d="M208.9,-396C208.9,-396 126.9,-396 126.9,-396 120.9,-396 114.9,-390 114.9,-384 114.9,-384 114.9,-372 114.9,-372 114.9,-366 120.9,-360 126.9,-360 126.9,-360 208.9,-360 208.9,-360 214.9,-360 220.9,-366 220.9,-372 220.9,-372 220.9,-384 220.9,-384 220.9,-390 214.9,-396 208.9,-396"/>
<text text-anchor="middle" x="167.9" y="-375.5" font-family="sans" font-size="10.00">copy_positives_cv</text>
</g>
<!-- 1&#45;&gt;0 -->
<g id="edge3" class="edge">
<title>1&#45;&gt;0</title>
<path fill="none" stroke="grey" stroke-width="2" d="M114.78,-370.81C83.08,-364.33 44.53,-351.08 20.9,-324 -5.7,-293.53 1.9,-275.45 1.9,-235 1.9,-235 1.9,-235 1.9,-161 1.9,-100.49 67.17,-57.09 109.82,-35.19"/>
<polygon fill="grey" stroke="grey" stroke-width="2" points="111.42,-38.31 118.81,-30.72 108.3,-32.04 111.42,-38.31"/>
</g>
<!-- 3 -->
<g id="node4" class="node">
<title>3</title>
<path fill="none" stroke="#78d856" stroke-width="2" d="M183.4,-324C183.4,-324 42.4,-324 42.4,-324 36.4,-324 30.4,-318 30.4,-312 30.4,-312 30.4,-300 30.4,-300 30.4,-294 36.4,-288 42.4,-288 42.4,-288 183.4,-288 183.4,-288 189.4,-288 195.4,-294 195.4,-300 195.4,-300 195.4,-312 195.4,-312 195.4,-318 189.4,-324 183.4,-324"/>
<text text-anchor="middle" x="112.9" y="-303.5" font-family="sans" font-size="10.00">extend_positive_crosslinks_cv</text>
</g>
<!-- 1&#45;&gt;3 -->
<g id="edge6" class="edge">
<title>1&#45;&gt;3</title>
<path fill="none" stroke="grey" stroke-width="2" d="M154.3,-359.7C147.78,-351.39 139.83,-341.28 132.65,-332.14"/>
<polygon fill="grey" stroke="grey" stroke-width="2" points="135.27,-329.81 126.34,-324.1 129.76,-334.13 135.27,-329.81"/>
</g>
<!-- 4 -->
<g id="node5" class="node">
<title>4</title>
<path fill="none" stroke="#56d8c9" stroke-width="2" d="M353.9,-252C353.9,-252 263.9,-252 263.9,-252 257.9,-252 251.9,-246 251.9,-240 251.9,-240 251.9,-228 251.9,-228 251.9,-222 257.9,-216 263.9,-216 263.9,-216 353.9,-216 353.9,-216 359.9,-216 365.9,-222 365.9,-228 365.9,-228 365.9,-240 365.9,-240 365.9,-246 359.9,-252 353.9,-252"/>
<text text-anchor="middle" x="308.9" y="-231.5" font-family="sans" font-size="10.00">negative_type_2_cv</text>
</g>
<!-- 1&#45;&gt;4 -->
<g id="edge7" class="edge">
<title>1&#45;&gt;4</title>
<path fill="none" stroke="grey" stroke-width="2" d="M193.74,-359.78C207.52,-350.04 224.37,-337.2 237.9,-324 258.06,-304.35 277.76,-279.01 291.28,-260.4"/>
<polygon fill="grey" stroke="grey" stroke-width="2" points="294.24,-262.28 297.21,-252.11 288.55,-258.2 294.24,-262.28"/>
</g>
<!-- 6 -->
<g id="node7" class="node">
<title>6</title>
<path fill="none" stroke="#d8a456" stroke-width="2" d="M281.4,-180C281.4,-180 138.4,-180 138.4,-180 132.4,-180 126.4,-174 126.4,-168 126.4,-168 126.4,-156 126.4,-156 126.4,-150 132.4,-144 138.4,-144 138.4,-144 281.4,-144 281.4,-144 287.4,-144 293.4,-150 293.4,-156 293.4,-156 293.4,-168 293.4,-168 293.4,-174 287.4,-180 281.4,-180"/>
<text text-anchor="middle" x="209.9" y="-159.5" font-family="sans" font-size="10.00">subsample_negative_types_cv</text>
</g>
<!-- 1&#45;&gt;6 -->
<g id="edge10" class="edge">
<title>1&#45;&gt;6</title>
<path fill="none" stroke="grey" stroke-width="2" d="M183.77,-359.79C191.7,-350.06 200.52,-337.21 204.9,-324 219.85,-278.93 217.17,-222.81 213.66,-190.14"/>
<polygon fill="grey" stroke="grey" stroke-width="2" points="217.12,-189.52 212.47,-180 210.16,-190.34 217.12,-189.52"/>
</g>
<!-- 2 -->
<g id="node3" class="node">
<title>2</title>
<path fill="none" stroke="#c6d856" stroke-width="2" d="M157.9,-252C157.9,-252 67.9,-252 67.9,-252 61.9,-252 55.9,-246 55.9,-240 55.9,-240 55.9,-228 55.9,-228 55.9,-222 61.9,-216 67.9,-216 67.9,-216 157.9,-216 157.9,-216 163.9,-216 169.9,-222 169.9,-228 169.9,-228 169.9,-240 169.9,-240 169.9,-246 163.9,-252 157.9,-252"/>
<text text-anchor="middle" x="112.9" y="-231.5" font-family="sans" font-size="10.00">negative_type_1_cv</text>
</g>
<!-- 2&#45;&gt;0 -->
<g id="edge4" class="edge">
<title>2&#45;&gt;0</title>
<path fill="none" stroke="grey" stroke-width="2" d="M108.26,-215.99C100.92,-186 89.1,-122.14 105.9,-72 109.25,-62 115.31,-52.38 121.73,-44.14"/>
<polygon fill="grey" stroke="grey" stroke-width="2" points="124.46,-46.33 128.17,-36.4 119.08,-41.85 124.46,-46.33"/>
</g>
<!-- 2&#45;&gt;6 -->
<g id="edge11" class="edge">
<title>2&#45;&gt;6</title>
<path fill="none" stroke="grey" stroke-width="2" d="M136.88,-215.7C149.21,-206.8 164.42,-195.82 177.75,-186.2"/>
<polygon fill="grey" stroke="grey" stroke-width="2" points="180.14,-188.79 186.2,-180.1 176.04,-183.12 180.14,-188.79"/>
</g>
<!-- 3&#45;&gt;2 -->
<g id="edge5" class="edge">
<title>3&#45;&gt;2</title>
<path fill="none" stroke="grey" stroke-width="2" d="M112.9,-287.7C112.9,-279.98 112.9,-270.71 112.9,-262.11"/>
<polygon fill="grey" stroke="grey" stroke-width="2" points="116.4,-262.1 112.9,-252.1 109.4,-262.1 116.4,-262.1"/>
</g>
<!-- 4&#45;&gt;0 -->
<g id="edge2" class="edge">
<title>4&#45;&gt;0</title>
<path fill="none" stroke="grey" stroke-width="2" d="M314.54,-215.96C323.89,-184.21 338.63,-115.29 306.9,-72 278.59,-33.39 221.23,-22.45 183.18,-19.6"/>
<polygon fill="grey" stroke="grey" stroke-width="2" points="183.19,-16.1 173,-19 182.78,-23.08 183.19,-16.1"/>
</g>
<!-- 4&#45;&gt;6 -->
<g id="edge9" class="edge">
<title>4&#45;&gt;6</title>
<path fill="none" stroke="grey" stroke-width="2" d="M284.68,-215.88C271.98,-206.89 256.23,-195.76 242.48,-186.03"/>
<polygon fill="grey" stroke="grey" stroke-width="2" points="244.4,-183.11 234.21,-180.19 240.35,-188.82 244.4,-183.11"/>
</g>
<!-- 5 -->
<g id="node6" class="node">
<title>5</title>
<path fill="none" stroke="#d85656" stroke-width="2" d="M285.4,-108C285.4,-108 126.4,-108 126.4,-108 120.4,-108 114.4,-102 114.4,-96 114.4,-96 114.4,-84 114.4,-84 114.4,-78 120.4,-72 126.4,-72 126.4,-72 285.4,-72 285.4,-72 291.4,-72 297.4,-78 297.4,-84 297.4,-84 297.4,-96 297.4,-96 297.4,-102 291.4,-108 285.4,-108"/>
<text text-anchor="middle" x="205.9" y="-87.5" font-family="sans" font-size="10.00">concat_subsampled_negatives_cv</text>
</g>
<!-- 5&#45;&gt;0 -->
<g id="edge1" class="edge">
<title>5&#45;&gt;0</title>
<path fill="none" stroke="grey" stroke-width="2" d="M191.07,-71.7C183.87,-63.3 175.1,-53.07 167.21,-43.86"/>
<polygon fill="grey" stroke="grey" stroke-width="2" points="169.73,-41.42 160.56,-36.1 164.41,-45.97 169.73,-41.42"/>
</g>
<!-- 6&#45;&gt;5 -->
<g id="edge8" class="edge">
<title>6&#45;&gt;5</title>
<path fill="none" stroke="grey" stroke-width="2" d="M208.91,-143.7C208.47,-135.98 207.94,-126.71 207.45,-118.11"/>
<polygon fill="grey" stroke="grey" stroke-width="2" points="210.94,-117.89 206.88,-108.1 203.95,-118.29 210.94,-117.89"/>
</g>
</g>
</svg>
