<?xml version="1.0" encoding="UTF-8" standalone="no"?>
<!DOCTYPE svg PUBLIC "-//W3C//DTD SVG 1.1//EN"
 "http://www.w3.org/Graphics/SVG/1.1/DTD/svg11.dtd">
<!-- Generated by graphviz version 2.42.3 (20191010.1750)
 -->
<!-- Title: snakemake_dag Pages: 1 -->
<svg width="185pt" height="476pt"
 viewBox="0.00 0.00 185.00 476.00" xmlns="http://www.w3.org/2000/svg" xmlns:xlink="http://www.w3.org/1999/xlink">
<g id="graph0" class="graph" transform="scale(1 1) rotate(0) translate(4 472)">
<title>snakemake_dag</title>
<polygon fill="white" stroke="transparent" points="-4,4 -4,-472 181,-472 181,4 -4,4"/>
<!-- 0 -->
<g id="node1" class="node">
<title>0</title>
<path fill="none" stroke="#d85656" stroke-width="2" d="M103.5,-36C103.5,-36 73.5,-36 73.5,-36 67.5,-36 61.5,-30 61.5,-24 61.5,-24 61.5,-12 61.5,-12 61.5,-6 67.5,0 73.5,0 73.5,0 103.5,0 103.5,0 109.5,0 115.5,-6 115.5,-12 115.5,-12 115.5,-24 115.5,-24 115.5,-30 109.5,-36 103.5,-36"/>
<text text-anchor="middle" x="88.5" y="-15.5" font-family="sans" font-size="10.00">all</text>
</g>
<!-- 1 -->
<g id="node2" class="node">
<title>1</title>
<path fill="none" stroke="#56d87b" stroke-width="2" d="M127,-108C127,-108 50,-108 50,-108 44,-108 38,-102 38,-96 38,-96 38,-84 38,-84 38,-78 44,-72 50,-72 50,-72 127,-72 127,-72 133,-72 139,-78 139,-84 139,-84 139,-96 139,-96 139,-102 133,-108 127,-108"/>
<text text-anchor="middle" x="88.5" y="-87.5" font-family="sans" font-size="10.00">peak_to_5_prime</text>
</g>
<!-- 1&#45;&gt;0 -->
<g id="edge1" class="edge">
<title>1&#45;&gt;0</title>
<path fill="none" stroke="grey" stroke-width="2" d="M88.5,-71.7C88.5,-63.98 88.5,-54.71 88.5,-46.11"/>
<polygon fill="grey" stroke="grey" stroke-width="2" points="92,-46.1 88.5,-36.1 85,-46.1 92,-46.1"/>
</g>
<!-- 2 -->
<g id="node3" class="node">
<title>2</title>
<path fill="none" stroke="#56d8c9" stroke-width="2" d="M113.5,-180C113.5,-180 63.5,-180 63.5,-180 57.5,-180 51.5,-174 51.5,-168 51.5,-168 51.5,-156 51.5,-156 51.5,-150 57.5,-144 63.5,-144 63.5,-144 113.5,-144 113.5,-144 119.5,-144 125.5,-150 125.5,-156 125.5,-156 125.5,-168 125.5,-168 125.5,-174 119.5,-180 113.5,-180"/>
<text text-anchor="middle" x="88.5" y="-159.5" font-family="sans" font-size="10.00">copy_peaks</text>
</g>
<!-- 2&#45;&gt;1 -->
<g id="edge2" class="edge">
<title>2&#45;&gt;1</title>
<path fill="none" stroke="grey" stroke-width="2" d="M88.5,-143.7C88.5,-135.98 88.5,-126.71 88.5,-118.11"/>
<polygon fill="grey" stroke="grey" stroke-width="2" points="92,-118.1 88.5,-108.1 85,-118.1 92,-118.1"/>
</g>
<!-- 3 -->
<g id="node4" class="node">
<title>3</title>
<path fill="none" stroke="#78d856" stroke-width="2" d="M142,-252C142,-252 35,-252 35,-252 29,-252 23,-246 23,-240 23,-240 23,-228 23,-228 23,-222 29,-216 35,-216 35,-216 142,-216 142,-216 148,-216 154,-222 154,-228 154,-228 154,-240 154,-240 154,-246 148,-252 142,-252"/>
<text text-anchor="middle" x="88.5" y="-231.5" font-family="sans" font-size="10.00">filter_and_select_peaks</text>
</g>
<!-- 3&#45;&gt;2 -->
<g id="edge3" class="edge">
<title>3&#45;&gt;2</title>
<path fill="none" stroke="grey" stroke-width="2" d="M88.5,-215.7C88.5,-207.98 88.5,-198.71 88.5,-190.11"/>
<polygon fill="grey" stroke="grey" stroke-width="2" points="92,-190.1 88.5,-180.1 85,-190.1 92,-190.1"/>
</g>
<!-- 4 -->
<g id="node5" class="node">
<title>4</title>
<path fill="none" stroke="#c6d856" stroke-width="2" d="M133,-324C133,-324 44,-324 44,-324 38,-324 32,-318 32,-312 32,-312 32,-300 32,-300 32,-294 38,-288 44,-288 44,-288 133,-288 133,-288 139,-288 145,-294 145,-300 145,-300 145,-312 145,-312 145,-318 139,-324 133,-324"/>
<text text-anchor="middle" x="88.5" y="-303.5" font-family="sans" font-size="10.00">intersect_replicates</text>
</g>
<!-- 4&#45;&gt;3 -->
<g id="edge4" class="edge">
<title>4&#45;&gt;3</title>
<path fill="none" stroke="grey" stroke-width="2" d="M88.5,-287.7C88.5,-279.98 88.5,-270.71 88.5,-262.11"/>
<polygon fill="grey" stroke="grey" stroke-width="2" points="92,-262.1 88.5,-252.1 85,-262.1 92,-262.1"/>
</g>
<!-- 5 -->
<g id="node6" class="node">
<title>5</title>
<path fill="none" stroke="#56a2d8" stroke-width="2" d="M139.5,-396C139.5,-396 37.5,-396 37.5,-396 31.5,-396 25.5,-390 25.5,-384 25.5,-384 25.5,-372 25.5,-372 25.5,-366 31.5,-360 37.5,-360 37.5,-360 139.5,-360 139.5,-360 145.5,-360 151.5,-366 151.5,-372 151.5,-372 151.5,-384 151.5,-384 151.5,-390 145.5,-396 139.5,-396"/>
<text text-anchor="middle" x="88.5" y="-375.5" font-family="sans" font-size="10.00">format_replicate_beds</text>
</g>
<!-- 5&#45;&gt;4 -->
<g id="edge5" class="edge">
<title>5&#45;&gt;4</title>
<path fill="none" stroke="grey" stroke-width="2" d="M88.5,-359.7C88.5,-351.98 88.5,-342.71 88.5,-334.11"/>
<polygon fill="grey" stroke="grey" stroke-width="2" points="92,-334.1 88.5,-324.1 85,-334.1 92,-334.1"/>
</g>
<!-- 6 -->
<g id="node7" class="node">
<title>6</title>
<path fill="none" stroke="#d8a456" stroke-width="2" d="M165,-468C165,-468 12,-468 12,-468 6,-468 0,-462 0,-456 0,-456 0,-444 0,-444 0,-438 6,-432 12,-432 12,-432 165,-432 165,-432 171,-432 177,-438 177,-444 177,-444 177,-456 177,-456 177,-462 171,-468 165,-468"/>
<text text-anchor="middle" x="88.5" y="-447.5" font-family="sans" font-size="10.00">intersect_peaks_with_transcripts</text>
</g>
<!-- 6&#45;&gt;5 -->
<g id="edge6" class="edge">
<title>6&#45;&gt;5</title>
<path fill="none" stroke="grey" stroke-width="2" d="M88.5,-431.7C88.5,-423.98 88.5,-414.71 88.5,-406.11"/>
<polygon fill="grey" stroke="grey" stroke-width="2" points="92,-406.1 88.5,-396.1 85,-406.1 92,-406.1"/>
</g>
</g>
</svg>
